# xmcd
# 
# Track frame offsets:
#     150
#     26053
#     58541
#     79850
#     95103
# 
# Disc length: 2069
# 
# Revision: 1
# Processed by: cddbd v1.5.2PL0 Copyright (c) Steve Scherf et al.
# Submitted via: BonkEnc v1.0.8
# 
DISCID=3b081305
DTITLE=Don Cherry, Latif Khan - Music - Sangam
DYEAR=1978
DGENRE=Contemporary Jazz
TTITLE0=Untitled - Inspiration From Home
TTITLE1=Air Mail
TTITLE2=One Dance
TTITLE3=Rhythm 58 1/4
TTITLE4=Sangam
EXTD=YEAR: 1978
EXTT0=
EXTT1=
EXTT2=
EXTT3=
EXTT4=
PLAYORDER=
